<mxfile>
    <diagram id="axLhZa9uP7TUQ5Z88JwK" name="Ejercicio 1">
        <mxGraphModel dx="1102" dy="717" grid="1" gridSize="10" guides="1" tooltips="1" connect="1" arrows="1" fold="1" page="1" pageScale="1" pageWidth="850" pageHeight="1100" math="0" shadow="0">
            <root>
                <mxCell id="0"/>
                <mxCell id="1" parent="0"/>
                <mxCell id="2" value="&lt;span style=&quot;color: rgb(32 , 33 , 36) ; font-family: &amp;#34;roboto&amp;#34; , &amp;#34;arial&amp;#34; , sans-serif ; font-size: 13px ; text-align: left ; background-color: rgb(255 , 255 , 255)&quot;&gt;Sumar dos números leídos por teclado y escribir el resultado.&lt;/span&gt;" style="rounded=0;whiteSpace=wrap;html=1;" parent="1" vertex="1">
                    <mxGeometry x="15" y="30" width="370" height="100" as="geometry"/>
                </mxCell>
                <mxCell id="5" style="edgeStyle=orthogonalEdgeStyle;rounded=0;orthogonalLoop=1;jettySize=auto;html=1;exitX=0.5;exitY=1;exitDx=0;exitDy=0;entryX=0.5;entryY=0;entryDx=0;entryDy=0;" parent="1" source="3" target="4" edge="1">
                    <mxGeometry relative="1" as="geometry"/>
                </mxCell>
                <mxCell id="3" value="Inicio" style="rounded=1;whiteSpace=wrap;html=1;arcSize=50;" parent="1" vertex="1">
                    <mxGeometry x="140" y="160" width="120" height="60" as="geometry"/>
                </mxCell>
                <mxCell id="ZYt2n561zDi8kqlhG2MO-13" style="edgeStyle=orthogonalEdgeStyle;rounded=0;orthogonalLoop=1;jettySize=auto;html=1;exitX=0.5;exitY=1;exitDx=0;exitDy=0;entryX=0.5;entryY=0;entryDx=0;entryDy=0;" parent="1" source="4" target="ZYt2n561zDi8kqlhG2MO-12" edge="1">
                    <mxGeometry relative="1" as="geometry"/>
                </mxCell>
                <mxCell id="4" value="numero1 = 0&lt;br&gt;numero2 = 0&lt;br&gt;resultado = 0" style="shape=parallelogram;perimeter=parallelogramPerimeter;whiteSpace=wrap;html=1;fixedSize=1;size=-10;" parent="1" vertex="1">
                    <mxGeometry x="110" y="250" width="180" height="50" as="geometry"/>
                </mxCell>
                <mxCell id="10" style="edgeStyle=orthogonalEdgeStyle;rounded=0;orthogonalLoop=1;jettySize=auto;html=1;exitX=0.5;exitY=1;exitDx=0;exitDy=0;entryX=0.5;entryY=0;entryDx=0;entryDy=0;" parent="1" source="6" target="9" edge="1">
                    <mxGeometry relative="1" as="geometry"/>
                </mxCell>
                <mxCell id="6" value="resultado = numero1 + numero2" style="rounded=0;whiteSpace=wrap;html=1;" parent="1" vertex="1">
                    <mxGeometry x="110" y="400" width="180" height="60" as="geometry"/>
                </mxCell>
                <mxCell id="12" style="edgeStyle=orthogonalEdgeStyle;rounded=0;orthogonalLoop=1;jettySize=auto;html=1;exitX=0.5;exitY=1;exitDx=0;exitDy=0;entryX=0.5;entryY=0;entryDx=0;entryDy=0;" parent="1" source="9" target="11" edge="1">
                    <mxGeometry relative="1" as="geometry"/>
                </mxCell>
                <mxCell id="9" value="resultado" style="shape=parallelogram;perimeter=parallelogramPerimeter;whiteSpace=wrap;html=1;fixedSize=1;" parent="1" vertex="1">
                    <mxGeometry x="140" y="490" width="120" height="60" as="geometry"/>
                </mxCell>
                <mxCell id="11" value="Fin" style="rounded=1;whiteSpace=wrap;html=1;arcSize=50;" parent="1" vertex="1">
                    <mxGeometry x="140" y="580" width="120" height="60" as="geometry"/>
                </mxCell>
                <mxCell id="ZYt2n561zDi8kqlhG2MO-14" style="edgeStyle=orthogonalEdgeStyle;rounded=0;orthogonalLoop=1;jettySize=auto;html=1;exitX=0.5;exitY=1;exitDx=0;exitDy=0;entryX=0.5;entryY=0;entryDx=0;entryDy=0;" parent="1" source="ZYt2n561zDi8kqlhG2MO-12" target="6" edge="1">
                    <mxGeometry relative="1" as="geometry"/>
                </mxCell>
                <mxCell id="ZYt2n561zDi8kqlhG2MO-12" value="numero1&lt;br&gt;numero2&lt;br&gt;" style="shape=parallelogram;perimeter=parallelogramPerimeter;whiteSpace=wrap;html=1;fixedSize=1;" parent="1" vertex="1">
                    <mxGeometry x="140" y="320" width="120" height="60" as="geometry"/>
                </mxCell>
            </root>
        </mxGraphModel>
    </diagram>
    <diagram id="XTCXBf_lxxJsrHLUHkwH" name="Ejercicio 2">
        <mxGraphModel dx="1102" dy="717" grid="1" gridSize="10" guides="1" tooltips="1" connect="1" arrows="1" fold="1" page="1" pageScale="1" pageWidth="850" pageHeight="1100" math="0" shadow="0">
            <root>
                <mxCell id="tR0jrL6L2h1wMRcOw44l-0"/>
                <mxCell id="tR0jrL6L2h1wMRcOw44l-1" parent="tR0jrL6L2h1wMRcOw44l-0"/>
                <mxCell id="tR0jrL6L2h1wMRcOw44l-2" value="&lt;span style=&quot;color: rgb(32 , 33 , 36) ; font-family: &amp;#34;roboto&amp;#34; , &amp;#34;arial&amp;#34; , sans-serif ; font-size: 13px ; text-align: left ; background-color: rgb(255 , 255 , 255)&quot;&gt;Debe almacenar 3 números en 3 variables A, B y C.  Posteriormente debe decidir cual es el mayor y cual es el menor.&lt;/span&gt;" style="rounded=0;whiteSpace=wrap;html=1;" parent="tR0jrL6L2h1wMRcOw44l-1" vertex="1">
                    <mxGeometry y="40" width="410" height="60" as="geometry"/>
                </mxCell>
                <mxCell id="tR0jrL6L2h1wMRcOw44l-5" style="edgeStyle=orthogonalEdgeStyle;rounded=0;orthogonalLoop=1;jettySize=auto;html=1;exitX=0.5;exitY=1;exitDx=0;exitDy=0;entryX=0.5;entryY=0;entryDx=0;entryDy=0;" parent="tR0jrL6L2h1wMRcOw44l-1" source="tR0jrL6L2h1wMRcOw44l-3" target="tR0jrL6L2h1wMRcOw44l-4" edge="1">
                    <mxGeometry relative="1" as="geometry"/>
                </mxCell>
                <mxCell id="tR0jrL6L2h1wMRcOw44l-3" value="Inicio" style="rounded=1;whiteSpace=wrap;html=1;arcSize=50;" parent="tR0jrL6L2h1wMRcOw44l-1" vertex="1">
                    <mxGeometry x="130" y="120" width="120" height="60" as="geometry"/>
                </mxCell>
                <mxCell id="J8buhgwuZHJkNT6bGW35-1" style="edgeStyle=orthogonalEdgeStyle;rounded=0;orthogonalLoop=1;jettySize=auto;html=1;exitX=0.5;exitY=1;exitDx=0;exitDy=0;entryX=0.5;entryY=0;entryDx=0;entryDy=0;" parent="tR0jrL6L2h1wMRcOw44l-1" source="tR0jrL6L2h1wMRcOw44l-4" target="J8buhgwuZHJkNT6bGW35-0" edge="1">
                    <mxGeometry relative="1" as="geometry"/>
                </mxCell>
                <mxCell id="tR0jrL6L2h1wMRcOw44l-4" value="A = 0&lt;br&gt;B = 0&lt;br&gt;C = 0&lt;br&gt;mayor = 0&lt;br&gt;menor = 0" style="shape=parallelogram;perimeter=parallelogramPerimeter;whiteSpace=wrap;html=1;fixedSize=1;size=-10;" parent="tR0jrL6L2h1wMRcOw44l-1" vertex="1">
                    <mxGeometry x="130" y="210" width="120" height="70" as="geometry"/>
                </mxCell>
                <mxCell id="J8buhgwuZHJkNT6bGW35-3" style="edgeStyle=orthogonalEdgeStyle;rounded=0;orthogonalLoop=1;jettySize=auto;html=1;exitX=0.5;exitY=1;exitDx=0;exitDy=0;entryX=0.5;entryY=0;entryDx=0;entryDy=0;" parent="tR0jrL6L2h1wMRcOw44l-1" source="J8buhgwuZHJkNT6bGW35-0" target="J8buhgwuZHJkNT6bGW35-2" edge="1">
                    <mxGeometry relative="1" as="geometry"/>
                </mxCell>
                <mxCell id="J8buhgwuZHJkNT6bGW35-0" value="A&lt;br&gt;B&lt;br&gt;C" style="shape=parallelogram;perimeter=parallelogramPerimeter;whiteSpace=wrap;html=1;fixedSize=1;" parent="tR0jrL6L2h1wMRcOw44l-1" vertex="1">
                    <mxGeometry x="130" y="310" width="120" height="60" as="geometry"/>
                </mxCell>
                <mxCell id="J8buhgwuZHJkNT6bGW35-4" style="edgeStyle=orthogonalEdgeStyle;rounded=0;orthogonalLoop=1;jettySize=auto;html=1;exitX=1;exitY=0.5;exitDx=0;exitDy=0;entryX=0;entryY=0.5;entryDx=0;entryDy=0;" parent="tR0jrL6L2h1wMRcOw44l-1" source="J8buhgwuZHJkNT6bGW35-2" target="J8buhgwuZHJkNT6bGW35-5" edge="1">
                    <mxGeometry relative="1" as="geometry">
                        <mxPoint x="280" y="460" as="targetPoint"/>
                    </mxGeometry>
                </mxCell>
                <mxCell id="J8buhgwuZHJkNT6bGW35-7" style="edgeStyle=orthogonalEdgeStyle;rounded=0;orthogonalLoop=1;jettySize=auto;html=1;exitX=0.5;exitY=1;exitDx=0;exitDy=0;entryX=0.5;entryY=0;entryDx=0;entryDy=0;" parent="tR0jrL6L2h1wMRcOw44l-1" source="J8buhgwuZHJkNT6bGW35-2" target="J8buhgwuZHJkNT6bGW35-9" edge="1">
                    <mxGeometry relative="1" as="geometry">
                        <mxPoint x="190" y="540" as="targetPoint"/>
                    </mxGeometry>
                </mxCell>
                <mxCell id="J8buhgwuZHJkNT6bGW35-2" value="A &amp;gt; B" style="rhombus;whiteSpace=wrap;html=1;" parent="tR0jrL6L2h1wMRcOw44l-1" vertex="1">
                    <mxGeometry x="140" y="420" width="100" height="80" as="geometry"/>
                </mxCell>
                <mxCell id="J8buhgwuZHJkNT6bGW35-11" style="edgeStyle=orthogonalEdgeStyle;rounded=0;orthogonalLoop=1;jettySize=auto;html=1;exitX=0.5;exitY=1;exitDx=0;exitDy=0;entryX=0.5;entryY=0;entryDx=0;entryDy=0;" parent="tR0jrL6L2h1wMRcOw44l-1" source="J8buhgwuZHJkNT6bGW35-5" target="J8buhgwuZHJkNT6bGW35-26" edge="1">
                    <mxGeometry relative="1" as="geometry">
                        <mxPoint x="490" y="530" as="targetPoint"/>
                    </mxGeometry>
                </mxCell>
                <mxCell id="J8buhgwuZHJkNT6bGW35-52" style="edgeStyle=orthogonalEdgeStyle;rounded=0;orthogonalLoop=1;jettySize=auto;html=1;exitX=1;exitY=0.5;exitDx=0;exitDy=0;entryX=0;entryY=0.5;entryDx=0;entryDy=0;" parent="tR0jrL6L2h1wMRcOw44l-1" source="J8buhgwuZHJkNT6bGW35-5" target="J8buhgwuZHJkNT6bGW35-51" edge="1">
                    <mxGeometry relative="1" as="geometry"/>
                </mxCell>
                <mxCell id="J8buhgwuZHJkNT6bGW35-5" value="A &amp;gt; C" style="rhombus;whiteSpace=wrap;html=1;" parent="tR0jrL6L2h1wMRcOw44l-1" vertex="1">
                    <mxGeometry x="450" y="420" width="80" height="80" as="geometry"/>
                </mxCell>
                <mxCell id="J8buhgwuZHJkNT6bGW35-6" value="si" style="text;html=1;align=center;verticalAlign=middle;resizable=0;points=[];autosize=1;" parent="tR0jrL6L2h1wMRcOw44l-1" vertex="1">
                    <mxGeometry x="250" y="440" width="20" height="20" as="geometry"/>
                </mxCell>
                <mxCell id="J8buhgwuZHJkNT6bGW35-8" value="no" style="text;html=1;align=center;verticalAlign=middle;resizable=0;points=[];autosize=1;" parent="tR0jrL6L2h1wMRcOw44l-1" vertex="1">
                    <mxGeometry x="185" y="500" width="30" height="20" as="geometry"/>
                </mxCell>
                <mxCell id="J8buhgwuZHJkNT6bGW35-25" style="edgeStyle=orthogonalEdgeStyle;rounded=0;orthogonalLoop=1;jettySize=auto;html=1;exitX=0.5;exitY=1;exitDx=0;exitDy=0;entryX=0.5;entryY=0;entryDx=0;entryDy=0;" parent="tR0jrL6L2h1wMRcOw44l-1" source="J8buhgwuZHJkNT6bGW35-9" edge="1">
                    <mxGeometry relative="1" as="geometry">
                        <mxPoint x="190" y="630" as="targetPoint"/>
                    </mxGeometry>
                </mxCell>
                <mxCell id="glsyrQ6FHFjq-Kps-YqR-2" style="edgeStyle=orthogonalEdgeStyle;rounded=0;orthogonalLoop=1;jettySize=auto;html=1;exitX=0;exitY=0.5;exitDx=0;exitDy=0;" parent="tR0jrL6L2h1wMRcOw44l-1" source="J8buhgwuZHJkNT6bGW35-9" edge="1">
                    <mxGeometry relative="1" as="geometry">
                        <mxPoint x="120" y="564.5714285714287" as="targetPoint"/>
                    </mxGeometry>
                </mxCell>
                <mxCell id="J8buhgwuZHJkNT6bGW35-9" value="B &amp;gt; C" style="rhombus;whiteSpace=wrap;html=1;" parent="tR0jrL6L2h1wMRcOw44l-1" vertex="1">
                    <mxGeometry x="150" y="530" width="80" height="70" as="geometry"/>
                </mxCell>
                <mxCell id="J8buhgwuZHJkNT6bGW35-10" value="18&lt;br&gt;35&lt;br&gt;45" style="text;html=1;align=center;verticalAlign=middle;resizable=0;points=[];autosize=1;" parent="tR0jrL6L2h1wMRcOw44l-1" vertex="1">
                    <mxGeometry x="355" y="195" width="30" height="50" as="geometry"/>
                </mxCell>
                <mxCell id="J8buhgwuZHJkNT6bGW35-12" value="no" style="text;html=1;align=center;verticalAlign=middle;resizable=0;points=[];autosize=1;" parent="tR0jrL6L2h1wMRcOw44l-1" vertex="1">
                    <mxGeometry x="490" y="530" width="30" height="20" as="geometry"/>
                </mxCell>
                <mxCell id="J8buhgwuZHJkNT6bGW35-44" style="edgeStyle=orthogonalEdgeStyle;rounded=0;orthogonalLoop=1;jettySize=auto;html=1;exitX=0.5;exitY=1;exitDx=0;exitDy=0;entryX=0.5;entryY=0;entryDx=0;entryDy=0;" parent="tR0jrL6L2h1wMRcOw44l-1" source="J8buhgwuZHJkNT6bGW35-26" target="J8buhgwuZHJkNT6bGW35-47" edge="1">
                    <mxGeometry relative="1" as="geometry">
                        <mxPoint x="490" y="700" as="targetPoint"/>
                    </mxGeometry>
                </mxCell>
                <mxCell id="J8buhgwuZHJkNT6bGW35-49" style="edgeStyle=orthogonalEdgeStyle;rounded=0;orthogonalLoop=1;jettySize=auto;html=1;exitX=1;exitY=0.5;exitDx=0;exitDy=0;entryX=0;entryY=0.5;entryDx=0;entryDy=0;" parent="tR0jrL6L2h1wMRcOw44l-1" source="J8buhgwuZHJkNT6bGW35-26" target="J8buhgwuZHJkNT6bGW35-48" edge="1">
                    <mxGeometry relative="1" as="geometry"/>
                </mxCell>
                <mxCell id="J8buhgwuZHJkNT6bGW35-26" value="A &amp;gt; B" style="rhombus;whiteSpace=wrap;html=1;" parent="tR0jrL6L2h1wMRcOw44l-1" vertex="1">
                    <mxGeometry x="450" y="600" width="80" height="80" as="geometry"/>
                </mxCell>
                <mxCell id="J8buhgwuZHJkNT6bGW35-61" style="edgeStyle=orthogonalEdgeStyle;rounded=0;orthogonalLoop=1;jettySize=auto;html=1;exitX=0.5;exitY=1;exitDx=0;exitDy=0;entryX=1;entryY=0.5;entryDx=0;entryDy=0;" parent="tR0jrL6L2h1wMRcOw44l-1" source="J8buhgwuZHJkNT6bGW35-29" target="J8buhgwuZHJkNT6bGW35-60" edge="1">
                    <mxGeometry relative="1" as="geometry"/>
                </mxCell>
                <mxCell id="J8buhgwuZHJkNT6bGW35-29" value="mayor = A&lt;br&gt;menor = C" style="rounded=0;whiteSpace=wrap;html=1;" parent="tR0jrL6L2h1wMRcOw44l-1" vertex="1">
                    <mxGeometry x="710" y="442.5" width="100" height="35" as="geometry"/>
                </mxCell>
                <mxCell id="J8buhgwuZHJkNT6bGW35-36" style="edgeStyle=orthogonalEdgeStyle;rounded=0;orthogonalLoop=1;jettySize=auto;html=1;exitX=0.5;exitY=1;exitDx=0;exitDy=0;" parent="tR0jrL6L2h1wMRcOw44l-1" source="J8buhgwuZHJkNT6bGW35-33" edge="1">
                    <mxGeometry relative="1" as="geometry">
                        <mxPoint x="190" y="740" as="targetPoint"/>
                    </mxGeometry>
                </mxCell>
                <mxCell id="J8buhgwuZHJkNT6bGW35-39" style="edgeStyle=orthogonalEdgeStyle;rounded=0;orthogonalLoop=1;jettySize=auto;html=1;exitX=1;exitY=0.5;exitDx=0;exitDy=0;" parent="tR0jrL6L2h1wMRcOw44l-1" source="J8buhgwuZHJkNT6bGW35-33" edge="1">
                    <mxGeometry relative="1" as="geometry">
                        <mxPoint x="260" y="670" as="targetPoint"/>
                    </mxGeometry>
                </mxCell>
                <mxCell id="J8buhgwuZHJkNT6bGW35-33" value="A &amp;gt; C" style="rhombus;whiteSpace=wrap;html=1;" parent="tR0jrL6L2h1wMRcOw44l-1" vertex="1">
                    <mxGeometry x="150" y="630" width="80" height="80" as="geometry"/>
                </mxCell>
                <mxCell id="J8buhgwuZHJkNT6bGW35-37" value="si" style="text;html=1;align=center;verticalAlign=middle;resizable=0;points=[];autosize=1;" parent="tR0jrL6L2h1wMRcOw44l-1" vertex="1">
                    <mxGeometry x="195" y="710" width="20" height="20" as="geometry"/>
                </mxCell>
                <mxCell id="J8buhgwuZHJkNT6bGW35-66" style="edgeStyle=orthogonalEdgeStyle;rounded=0;orthogonalLoop=1;jettySize=auto;html=1;exitX=0.5;exitY=1;exitDx=0;exitDy=0;entryX=0.033;entryY=1.004;entryDx=0;entryDy=0;entryPerimeter=0;" parent="tR0jrL6L2h1wMRcOw44l-1" source="J8buhgwuZHJkNT6bGW35-41" target="J8buhgwuZHJkNT6bGW35-60" edge="1">
                    <mxGeometry relative="1" as="geometry"/>
                </mxCell>
                <mxCell id="J8buhgwuZHJkNT6bGW35-41" value="mayor = B&lt;br&gt;menor = C" style="rounded=0;whiteSpace=wrap;html=1;" parent="tR0jrL6L2h1wMRcOw44l-1" vertex="1">
                    <mxGeometry x="140" y="740" width="120" height="60" as="geometry"/>
                </mxCell>
                <mxCell id="J8buhgwuZHJkNT6bGW35-65" style="edgeStyle=orthogonalEdgeStyle;rounded=0;orthogonalLoop=1;jettySize=auto;html=1;exitX=0.5;exitY=1;exitDx=0;exitDy=0;entryX=0;entryY=0.25;entryDx=0;entryDy=0;" parent="tR0jrL6L2h1wMRcOw44l-1" source="J8buhgwuZHJkNT6bGW35-42" target="J8buhgwuZHJkNT6bGW35-60" edge="1">
                    <mxGeometry relative="1" as="geometry"/>
                </mxCell>
                <mxCell id="J8buhgwuZHJkNT6bGW35-42" value="mayor = B&lt;br&gt;menor = A" style="rounded=0;whiteSpace=wrap;html=1;" parent="tR0jrL6L2h1wMRcOw44l-1" vertex="1">
                    <mxGeometry x="260" y="640" width="120" height="60" as="geometry"/>
                </mxCell>
                <mxCell id="J8buhgwuZHJkNT6bGW35-43" value="no" style="text;html=1;align=center;verticalAlign=middle;resizable=0;points=[];autosize=1;" parent="tR0jrL6L2h1wMRcOw44l-1" vertex="1">
                    <mxGeometry x="225" y="640" width="30" height="20" as="geometry"/>
                </mxCell>
                <mxCell id="J8buhgwuZHJkNT6bGW35-45" value="si" style="text;html=1;align=center;verticalAlign=middle;resizable=0;points=[];autosize=1;" parent="tR0jrL6L2h1wMRcOw44l-1" vertex="1">
                    <mxGeometry x="500" y="680" width="20" height="20" as="geometry"/>
                </mxCell>
                <mxCell id="J8buhgwuZHJkNT6bGW35-64" style="edgeStyle=orthogonalEdgeStyle;rounded=0;orthogonalLoop=1;jettySize=auto;html=1;exitX=0.5;exitY=1;exitDx=0;exitDy=0;entryX=0.415;entryY=0.067;entryDx=0;entryDy=0;entryPerimeter=0;" parent="tR0jrL6L2h1wMRcOw44l-1" source="J8buhgwuZHJkNT6bGW35-47" target="J8buhgwuZHJkNT6bGW35-60" edge="1">
                    <mxGeometry relative="1" as="geometry"/>
                </mxCell>
                <mxCell id="J8buhgwuZHJkNT6bGW35-47" value="mayor = C&lt;br&gt;menor = B" style="rounded=0;whiteSpace=wrap;html=1;" parent="tR0jrL6L2h1wMRcOw44l-1" vertex="1">
                    <mxGeometry x="430" y="710" width="120" height="60" as="geometry"/>
                </mxCell>
                <mxCell id="J8buhgwuZHJkNT6bGW35-63" style="edgeStyle=orthogonalEdgeStyle;rounded=0;orthogonalLoop=1;jettySize=auto;html=1;exitX=0.5;exitY=1;exitDx=0;exitDy=0;entryX=1.019;entryY=0.056;entryDx=0;entryDy=0;entryPerimeter=0;" parent="tR0jrL6L2h1wMRcOw44l-1" source="J8buhgwuZHJkNT6bGW35-48" target="J8buhgwuZHJkNT6bGW35-60" edge="1">
                    <mxGeometry relative="1" as="geometry"/>
                </mxCell>
                <mxCell id="J8buhgwuZHJkNT6bGW35-48" value="mayor = C&lt;br&gt;menor = A" style="rounded=0;whiteSpace=wrap;html=1;" parent="tR0jrL6L2h1wMRcOw44l-1" vertex="1">
                    <mxGeometry x="570" y="610" width="120" height="60" as="geometry"/>
                </mxCell>
                <mxCell id="J8buhgwuZHJkNT6bGW35-50" value="no" style="text;html=1;align=center;verticalAlign=middle;resizable=0;points=[];autosize=1;" parent="tR0jrL6L2h1wMRcOw44l-1" vertex="1">
                    <mxGeometry x="525" y="620" width="30" height="20" as="geometry"/>
                </mxCell>
                <mxCell id="J8buhgwuZHJkNT6bGW35-54" style="edgeStyle=orthogonalEdgeStyle;rounded=0;orthogonalLoop=1;jettySize=auto;html=1;exitX=1;exitY=0.5;exitDx=0;exitDy=0;entryX=0;entryY=0.5;entryDx=0;entryDy=0;" parent="tR0jrL6L2h1wMRcOw44l-1" source="J8buhgwuZHJkNT6bGW35-51" target="J8buhgwuZHJkNT6bGW35-29" edge="1">
                    <mxGeometry relative="1" as="geometry">
                        <mxPoint x="700" y="460" as="targetPoint"/>
                    </mxGeometry>
                </mxCell>
                <mxCell id="J8buhgwuZHJkNT6bGW35-57" style="edgeStyle=orthogonalEdgeStyle;rounded=0;orthogonalLoop=1;jettySize=auto;html=1;exitX=0.5;exitY=1;exitDx=0;exitDy=0;" parent="tR0jrL6L2h1wMRcOw44l-1" source="J8buhgwuZHJkNT6bGW35-51" edge="1">
                    <mxGeometry relative="1" as="geometry">
                        <mxPoint x="610" y="530" as="targetPoint"/>
                    </mxGeometry>
                </mxCell>
                <mxCell id="J8buhgwuZHJkNT6bGW35-51" value="B &amp;gt; C" style="rhombus;whiteSpace=wrap;html=1;" parent="tR0jrL6L2h1wMRcOw44l-1" vertex="1">
                    <mxGeometry x="570" y="420" width="80" height="80" as="geometry"/>
                </mxCell>
                <mxCell id="J8buhgwuZHJkNT6bGW35-53" value="si" style="text;html=1;align=center;verticalAlign=middle;resizable=0;points=[];autosize=1;" parent="tR0jrL6L2h1wMRcOw44l-1" vertex="1">
                    <mxGeometry x="540" y="440" width="20" height="20" as="geometry"/>
                </mxCell>
                <mxCell id="J8buhgwuZHJkNT6bGW35-55" value="si" style="text;html=1;align=center;verticalAlign=middle;resizable=0;points=[];autosize=1;" parent="tR0jrL6L2h1wMRcOw44l-1" vertex="1">
                    <mxGeometry x="660" y="430" width="20" height="20" as="geometry"/>
                </mxCell>
                <mxCell id="J8buhgwuZHJkNT6bGW35-62" style="edgeStyle=orthogonalEdgeStyle;rounded=0;orthogonalLoop=1;jettySize=auto;html=1;exitX=1;exitY=0.5;exitDx=0;exitDy=0;entryX=1;entryY=0.25;entryDx=0;entryDy=0;" parent="tR0jrL6L2h1wMRcOw44l-1" source="J8buhgwuZHJkNT6bGW35-56" target="J8buhgwuZHJkNT6bGW35-60" edge="1">
                    <mxGeometry relative="1" as="geometry">
                        <Array as="points">
                            <mxPoint x="710" y="548"/>
                            <mxPoint x="710" y="898"/>
                        </Array>
                    </mxGeometry>
                </mxCell>
                <mxCell id="J8buhgwuZHJkNT6bGW35-56" value="mayor = A&lt;br&gt;menor = B" style="rounded=0;whiteSpace=wrap;html=1;" parent="tR0jrL6L2h1wMRcOw44l-1" vertex="1">
                    <mxGeometry x="555" y="530" width="100" height="35" as="geometry"/>
                </mxCell>
                <mxCell id="J8buhgwuZHJkNT6bGW35-59" value="no" style="text;html=1;align=center;verticalAlign=middle;resizable=0;points=[];autosize=1;" parent="tR0jrL6L2h1wMRcOw44l-1" vertex="1">
                    <mxGeometry x="625" y="500" width="30" height="20" as="geometry"/>
                </mxCell>
                <mxCell id="J8buhgwuZHJkNT6bGW35-60" value="mayor&lt;br&gt;menor" style="shape=document;whiteSpace=wrap;html=1;boundedLbl=1;" parent="tR0jrL6L2h1wMRcOw44l-1" vertex="1">
                    <mxGeometry x="440" y="880" width="120" height="70" as="geometry"/>
                </mxCell>
                <mxCell id="J8buhgwuZHJkNT6bGW35-67" value="Fin" style="rounded=1;whiteSpace=wrap;html=1;arcSize=50;" parent="tR0jrL6L2h1wMRcOw44l-1" vertex="1">
                    <mxGeometry x="450" y="1010" width="120" height="60" as="geometry"/>
                </mxCell>
                <mxCell id="J8buhgwuZHJkNT6bGW35-68" value="" style="endArrow=classic;html=1;entryX=0.5;entryY=0;entryDx=0;entryDy=0;exitX=0.596;exitY=0.814;exitDx=0;exitDy=0;exitPerimeter=0;" parent="tR0jrL6L2h1wMRcOw44l-1" source="J8buhgwuZHJkNT6bGW35-60" target="J8buhgwuZHJkNT6bGW35-67" edge="1">
                    <mxGeometry width="50" height="50" relative="1" as="geometry">
                        <mxPoint x="340" y="890" as="sourcePoint"/>
                        <mxPoint x="390" y="840" as="targetPoint"/>
                    </mxGeometry>
                </mxCell>
                <mxCell id="glsyrQ6FHFjq-Kps-YqR-0" value="si" style="text;html=1;align=center;verticalAlign=middle;resizable=0;points=[];autosize=1;" parent="tR0jrL6L2h1wMRcOw44l-1" vertex="1">
                    <mxGeometry x="200" y="600" width="20" height="20" as="geometry"/>
                </mxCell>
                <mxCell id="glsyrQ6FHFjq-Kps-YqR-6" style="edgeStyle=orthogonalEdgeStyle;rounded=0;orthogonalLoop=1;jettySize=auto;html=1;exitX=0.5;exitY=1;exitDx=0;exitDy=0;entryX=0;entryY=0.75;entryDx=0;entryDy=0;" parent="tR0jrL6L2h1wMRcOw44l-1" source="glsyrQ6FHFjq-Kps-YqR-3" target="J8buhgwuZHJkNT6bGW35-60" edge="1">
                    <mxGeometry relative="1" as="geometry"/>
                </mxCell>
                <mxCell id="glsyrQ6FHFjq-Kps-YqR-3" value="mayor = C&lt;br&gt;menor = A" style="rounded=0;whiteSpace=wrap;html=1;" parent="tR0jrL6L2h1wMRcOw44l-1" vertex="1">
                    <mxGeometry y="530" width="120" height="60" as="geometry"/>
                </mxCell>
                <mxCell id="glsyrQ6FHFjq-Kps-YqR-5" value="no" style="text;html=1;align=center;verticalAlign=middle;resizable=0;points=[];autosize=1;" parent="tR0jrL6L2h1wMRcOw44l-1" vertex="1">
                    <mxGeometry x="125" y="540" width="30" height="20" as="geometry"/>
                </mxCell>
            </root>
        </mxGraphModel>
    </diagram>
    <diagram id="Ck37PPHhz9Vyl64i7sj9" name="Ejercicio 3">
        <mxGraphModel dx="1102" dy="717" grid="1" gridSize="10" guides="1" tooltips="1" connect="1" arrows="1" fold="1" page="1" pageScale="1" pageWidth="850" pageHeight="1100" math="0" shadow="0">
            <root>
                <mxCell id="HdBDXMvzsJ89XkzCE3jc-0"/>
                <mxCell id="HdBDXMvzsJ89XkzCE3jc-1" parent="HdBDXMvzsJ89XkzCE3jc-0"/>
                <mxCell id="HdBDXMvzsJ89XkzCE3jc-12" style="edgeStyle=orthogonalEdgeStyle;rounded=0;orthogonalLoop=1;jettySize=auto;html=1;exitX=0.5;exitY=1;exitDx=0;exitDy=0;entryX=0.5;entryY=0;entryDx=0;entryDy=0;" edge="1" parent="HdBDXMvzsJ89XkzCE3jc-1" source="HdBDXMvzsJ89XkzCE3jc-2" target="HdBDXMvzsJ89XkzCE3jc-3">
                    <mxGeometry relative="1" as="geometry"/>
                </mxCell>
                <mxCell id="HdBDXMvzsJ89XkzCE3jc-2" value="Inicio" style="rounded=1;whiteSpace=wrap;html=1;arcSize=50;" vertex="1" parent="HdBDXMvzsJ89XkzCE3jc-1">
                    <mxGeometry x="247.5" y="40" width="90" height="40" as="geometry"/>
                </mxCell>
                <mxCell id="HdBDXMvzsJ89XkzCE3jc-13" style="edgeStyle=orthogonalEdgeStyle;rounded=0;orthogonalLoop=1;jettySize=auto;html=1;exitX=0.5;exitY=1;exitDx=0;exitDy=0;entryX=0.5;entryY=0;entryDx=0;entryDy=0;" edge="1" parent="HdBDXMvzsJ89XkzCE3jc-1" source="HdBDXMvzsJ89XkzCE3jc-3" target="HdBDXMvzsJ89XkzCE3jc-7">
                    <mxGeometry relative="1" as="geometry"/>
                </mxCell>
                <mxCell id="HdBDXMvzsJ89XkzCE3jc-3" value="acumulador = 0&lt;br&gt;contador = 0&lt;br&gt;numero = 0" style="rounded=0;whiteSpace=wrap;html=1;" vertex="1" parent="HdBDXMvzsJ89XkzCE3jc-1">
                    <mxGeometry x="232.5" y="120" width="120" height="60" as="geometry"/>
                </mxCell>
                <mxCell id="HdBDXMvzsJ89XkzCE3jc-10" style="edgeStyle=orthogonalEdgeStyle;rounded=0;orthogonalLoop=1;jettySize=auto;html=1;exitX=0.5;exitY=1;exitDx=0;exitDy=0;entryX=0.5;entryY=0;entryDx=0;entryDy=0;" edge="1" parent="HdBDXMvzsJ89XkzCE3jc-1" source="HdBDXMvzsJ89XkzCE3jc-4" target="HdBDXMvzsJ89XkzCE3jc-5">
                    <mxGeometry relative="1" as="geometry"/>
                </mxCell>
                <mxCell id="HdBDXMvzsJ89XkzCE3jc-4" value="numero" style="shape=parallelogram;perimeter=parallelogramPerimeter;whiteSpace=wrap;html=1;fixedSize=1;" vertex="1" parent="HdBDXMvzsJ89XkzCE3jc-1">
                    <mxGeometry x="470" y="220" width="120" height="60" as="geometry"/>
                </mxCell>
                <mxCell id="HdBDXMvzsJ89XkzCE3jc-11" style="edgeStyle=orthogonalEdgeStyle;rounded=0;orthogonalLoop=1;jettySize=auto;html=1;exitX=0.5;exitY=1;exitDx=0;exitDy=0;entryX=0.5;entryY=1;entryDx=0;entryDy=0;" edge="1" parent="HdBDXMvzsJ89XkzCE3jc-1" source="HdBDXMvzsJ89XkzCE3jc-5" target="HdBDXMvzsJ89XkzCE3jc-7">
                    <mxGeometry relative="1" as="geometry"/>
                </mxCell>
                <mxCell id="HdBDXMvzsJ89XkzCE3jc-5" value="acumulador = acumulador + numero&lt;br&gt;contador ++" style="rounded=0;whiteSpace=wrap;html=1;" vertex="1" parent="HdBDXMvzsJ89XkzCE3jc-1">
                    <mxGeometry x="425" y="360" width="210" height="60" as="geometry"/>
                </mxCell>
                <mxCell id="HdBDXMvzsJ89XkzCE3jc-8" style="edgeStyle=orthogonalEdgeStyle;rounded=0;orthogonalLoop=1;jettySize=auto;html=1;exitX=1;exitY=0.5;exitDx=0;exitDy=0;entryX=0;entryY=0.5;entryDx=0;entryDy=0;" edge="1" parent="HdBDXMvzsJ89XkzCE3jc-1" source="HdBDXMvzsJ89XkzCE3jc-7" target="HdBDXMvzsJ89XkzCE3jc-4">
                    <mxGeometry relative="1" as="geometry"/>
                </mxCell>
                <mxCell id="HdBDXMvzsJ89XkzCE3jc-15" style="edgeStyle=orthogonalEdgeStyle;rounded=0;orthogonalLoop=1;jettySize=auto;html=1;exitX=0;exitY=0.5;exitDx=0;exitDy=0;" edge="1" parent="HdBDXMvzsJ89XkzCE3jc-1" source="HdBDXMvzsJ89XkzCE3jc-7">
                    <mxGeometry relative="1" as="geometry">
                        <mxPoint x="200" y="250" as="targetPoint"/>
                    </mxGeometry>
                </mxCell>
                <mxCell id="HdBDXMvzsJ89XkzCE3jc-7" value="contador &amp;lt; 100" style="rhombus;whiteSpace=wrap;html=1;" vertex="1" parent="HdBDXMvzsJ89XkzCE3jc-1">
                    <mxGeometry x="235" y="210" width="115" height="80" as="geometry"/>
                </mxCell>
                <mxCell id="HdBDXMvzsJ89XkzCE3jc-9" value="si" style="text;html=1;align=center;verticalAlign=middle;resizable=0;points=[];autosize=1;" vertex="1" parent="HdBDXMvzsJ89XkzCE3jc-1">
                    <mxGeometry x="390" y="220" width="20" height="20" as="geometry"/>
                </mxCell>
                <mxCell id="HdBDXMvzsJ89XkzCE3jc-14" value="Debe sumar 100 números leídos por teclado y posteriormente debe imprimir el resultado." style="whiteSpace=wrap;html=1;" vertex="1" parent="HdBDXMvzsJ89XkzCE3jc-1">
                    <mxGeometry x="400" y="20" width="240" height="60" as="geometry"/>
                </mxCell>
                <mxCell id="HdBDXMvzsJ89XkzCE3jc-16" value="no" style="text;html=1;align=center;verticalAlign=middle;resizable=0;points=[];autosize=1;" vertex="1" parent="HdBDXMvzsJ89XkzCE3jc-1">
                    <mxGeometry x="205" y="220" width="30" height="20" as="geometry"/>
                </mxCell>
                <mxCell id="HdBDXMvzsJ89XkzCE3jc-17" value="acumulador" style="shape=document;whiteSpace=wrap;html=1;boundedLbl=1;" vertex="1" parent="HdBDXMvzsJ89XkzCE3jc-1">
                    <mxGeometry x="80" y="220" width="120" height="80" as="geometry"/>
                </mxCell>
                <mxCell id="HdBDXMvzsJ89XkzCE3jc-18" value="Fin" style="rounded=1;whiteSpace=wrap;html=1;arcSize=50;" vertex="1" parent="HdBDXMvzsJ89XkzCE3jc-1">
                    <mxGeometry x="85" y="340" width="115" height="40" as="geometry"/>
                </mxCell>
                <mxCell id="HdBDXMvzsJ89XkzCE3jc-22" value="" style="endArrow=classic;html=1;exitX=0.54;exitY=0.848;exitDx=0;exitDy=0;exitPerimeter=0;entryX=0.5;entryY=0;entryDx=0;entryDy=0;" edge="1" parent="HdBDXMvzsJ89XkzCE3jc-1" source="HdBDXMvzsJ89XkzCE3jc-17" target="HdBDXMvzsJ89XkzCE3jc-18">
                    <mxGeometry width="50" height="50" relative="1" as="geometry">
                        <mxPoint x="400" y="230" as="sourcePoint"/>
                        <mxPoint x="450" y="180" as="targetPoint"/>
                    </mxGeometry>
                </mxCell>
            </root>
        </mxGraphModel>
    </diagram>
    <diagram id="UVsSYINC07GYX9sZ9lK-" name="Ejercicio 4">
        <mxGraphModel dx="1102" dy="717" grid="1" gridSize="10" guides="1" tooltips="1" connect="1" arrows="1" fold="1" page="1" pageScale="1" pageWidth="850" pageHeight="1100" math="0" shadow="0">
            <root>
                <mxCell id="A62SI7A_d7khpWgB2Bdy-0"/>
                <mxCell id="A62SI7A_d7khpWgB2Bdy-1" parent="A62SI7A_d7khpWgB2Bdy-0"/>
                <mxCell id="A62SI7A_d7khpWgB2Bdy-2" value="Debe imprimir los 100 primeros números pares." style="whiteSpace=wrap;html=1;" vertex="1" parent="A62SI7A_d7khpWgB2Bdy-1">
                    <mxGeometry x="370" y="20" width="210" height="60" as="geometry"/>
                </mxCell>
            </root>
        </mxGraphModel>
    </diagram>
    <diagram id="Dq3jazMGi4LQc4RYWlrE" name="Ejercicio 5">
        <mxGraphModel dx="1102" dy="717" grid="1" gridSize="10" guides="1" tooltips="1" connect="1" arrows="1" fold="1" page="1" pageScale="1" pageWidth="850" pageHeight="1100" math="0" shadow="0">
            <root>
                <mxCell id="2qwuXuUrG5BuM918P2hP-0"/>
                <mxCell id="2qwuXuUrG5BuM918P2hP-1" parent="2qwuXuUrG5BuM918P2hP-0"/>
                <mxCell id="LcxMgM1tpXDymYRGW4MA-0" value="Calcular el máximo de N números leídos desde teclado." style="whiteSpace=wrap;html=1;" vertex="1" parent="2qwuXuUrG5BuM918P2hP-1">
                    <mxGeometry x="410" y="30" width="260" height="60" as="geometry"/>
                </mxCell>
            </root>
        </mxGraphModel>
    </diagram>
</mxfile>
